<?xml version="1.0" ?><svg viewBox="0 0 69.45 69.45" xmlns="http://www.w3.org/2000/svg" xmlns:xlink="http://www.w3.org/1999/xlink"><defs><style>.cls-1{fill:url(#linear-gradient);}.cls-2{fill:#fff;}</style><linearGradient gradientUnits="userSpaceOnUse" id="linear-gradient" x1="9.7" x2="59.74" y1="58.8" y2="10.65"><stop offset="0" stop-color="#f1ea60"/><stop offset="0.24" stop-color="#cc8049"/><stop offset="0.39" stop-color="#b75967"/><stop offset="0.49" stop-color="#ac4476"/><stop offset="1" stop-color="#2530f4"/></linearGradient></defs><title/><g data-name="Layer 2" id="Layer_2"><g data-name="Layer 1" id="Layer_1-2"><circle class="cls-1" cx="34.72" cy="34.72" r="34.72"/><path class="cls-2" d="M34.72,20.37c4.68,0,5.23,0,7.08.1a9.75,9.75,0,0,1,3.25.6,5.43,5.43,0,0,1,2,1.31,5.31,5.31,0,0,1,1.31,2A9.62,9.62,0,0,1,49,27.65c.08,1.84.1,2.4.1,7.07s0,5.23-.1,7.08a9.68,9.68,0,0,1-.61,3.25,5.81,5.81,0,0,1-3.32,3.32A9.68,9.68,0,0,1,41.8,49c-1.85.08-2.4.1-7.08.1s-5.23,0-7.07-.1a9.62,9.62,0,0,1-3.25-.61,5.31,5.31,0,0,1-2-1.31,5.43,5.43,0,0,1-1.31-2,9.75,9.75,0,0,1-.6-3.25c-.08-1.85-.1-2.4-.1-7.08s0-5.23.1-7.07a9.69,9.69,0,0,1,.6-3.25,5.77,5.77,0,0,1,3.33-3.33,9.69,9.69,0,0,1,3.25-.6c1.84-.08,2.4-.1,7.07-.1m0-3.16c-4.75,0-5.35,0-7.22.11a12.86,12.86,0,0,0-4.25.81,9,9,0,0,0-5.12,5.12,12.86,12.86,0,0,0-.81,4.25c-.09,1.87-.11,2.47-.11,7.22s0,5.36.11,7.22a12.75,12.75,0,0,0,.81,4.25,8.94,8.94,0,0,0,5.12,5.13,13.12,13.12,0,0,0,4.25.81c1.87.08,2.47.1,7.22.1s5.36,0,7.22-.1a13,13,0,0,0,4.25-.81,8.87,8.87,0,0,0,5.12-5.13,12.72,12.72,0,0,0,.82-4.25c.08-1.86.1-2.46.1-7.22s0-5.35-.1-7.22a12.83,12.83,0,0,0-.82-4.25,8.56,8.56,0,0,0-2-3.1,8.68,8.68,0,0,0-3.11-2,12.75,12.75,0,0,0-4.25-.81c-1.86-.09-2.46-.11-7.22-.11"/><path class="cls-2" d="M34.72,25.73a9,9,0,1,0,9,9,9,9,0,0,0-9-9m0,14.83a5.84,5.84,0,1,1,5.84-5.84,5.83,5.83,0,0,1-5.84,5.84"/><path class="cls-2" d="M46.17,25.38a2.1,2.1,0,1,1-2.1-2.1,2.1,2.1,0,0,1,2.1,2.1"/></g></g></svg>