<svg id="Flat" height="512" viewBox="0 0 512 512" width="512" xmlns="http://www.w3.org/2000/svg"><path d="m486.187 114.928a8 8 0 0 0 -6.187-2.928h-336a8 8 0 0 0 0 16h65.38l9.143 48h-50.523a8 8 0 0 0 0 16h53.571l9.143 48h-38.714a8 8 0 0 0 0 16h41.761l5.693 29.885-31.986 2.133a8 8 0 0 0 .524 15.982q.268 0 .54-.018l240-16a8 8 0 0 0 7.313-6.413l32-160a8.006 8.006 0 0 0 -1.658-6.641zm-25.546 61.072h-39.683l9.6-48h39.683zm-12.8 64h-39.683l9.6-48h39.682zm-95.641 38.369 2.24-22.369h34.2l-4.04 20.209zm-48.775 3.251-2.436-25.62h37.371l-2.32 23.2c-.008.082-.006.162-.012.243zm110.816-153.62-9.6 48h-42.2l4.8-48zm-67.881 48h-52.991l-4.569-48h62.36zm-1.6 16-4.8 48h-40.5l-4.572-48zm11.28 48 4.8-48h40.6l-9.6 48zm-130.373-112h47.059l4.571 48h-42.487zm12.191 64h40.963l4.571 48h-36.392zm12.19 64h34.868l2.542 26.685-31.922 2.128zm151.089 19.106 3.821-19.106h39.683l-3.285 16.425z" fill="#e9eef2"/><circle cx="192" cy="424" fill="#4f5659" r="48"/><circle cx="192" cy="424" fill="#e9eef2" r="16"/><circle cx="440" cy="424" fill="#4f5659" r="48"/><circle cx="440" cy="424" fill="#e9eef2" r="16"/><path d="m208 344v-48l-68.719-244.332a16 16 0 0 0 -15.402-11.668h-83.879a16 16 0 0 0 -16 16 16 16 0 0 0 16 16h59.931a16 16 0 0 1 15.384 11.6l60.685 212.4v80h296a16 16 0 0 0 16-16 16 16 0 0 0 -16-16z" fill="#dadcde"/><path d="m88 40v32h-48a16 16 0 0 1 0-32z" fill="#eb423f"/></svg>